<?xml version="1.0" standalone="no"?>
<!DOCTYPE svg PUBLIC "-//W3C//DTD SVG 20010904//EN"
 "http://www.w3.org/TR/2001/REC-SVG-20010904/DTD/svg10.dtd">
<svg version="1.0" xmlns="http://www.w3.org/2000/svg"
 width="960.000000pt" height="960.000000pt" viewBox="0 0 960.000000 960.000000"
 preserveAspectRatio="xMidYMid meet">

<g transform="translate(0.000000,960.000000) scale(0.100000,-0.100000)"
fill="" stroke="">
<path d="M4115 9590 c-3 -6 -29 -10 -56 -10 -61 0 -108 -19 -147 -59 -16 -17
-34 -31 -41 -31 -6 0 -11 -7 -11 -15 0 -8 -8 -15 -18 -15 -10 0 -31 -14 -47
-30 -25 -26 -109 -83 -125 -85 -19 -2 -53 -30 -60 -51 -5 -13 -21 -28 -34 -34
-13 -5 -37 -26 -52 -47 -31 -41 -75 -87 -85 -88 -9 0 -69 -72 -69 -83 0 -6 -6
-15 -12 -19 -7 -4 -30 -28 -51 -53 -21 -25 -46 -54 -56 -65 -36 -42 -137 -177
-149 -201 -7 -14 -22 -30 -33 -37 -10 -6 -19 -16 -19 -22 0 -6 -8 -15 -18 -21
-9 -6 -30 -35 -47 -65 -16 -30 -35 -60 -42 -67 -7 -7 -13 -18 -13 -24 0 -5
-10 -23 -22 -38 -13 -16 -36 -45 -53 -66 -16 -20 -38 -50 -48 -66 -9 -16 -24
-31 -32 -34 -8 -4 -15 -11 -15 -18 0 -6 -9 -17 -20 -24 -11 -7 -20 -17 -20
-23 0 -5 -12 -22 -26 -36 -28 -28 -59 -91 -50 -101 3 -3 6 1 6 8 0 7 2 11 5 8
9 -8 -6 -38 -16 -32 -5 3 -9 -15 -9 -39 0 -27 -6 -49 -14 -56 -8 -7 -18 -27
-21 -44 -4 -18 -14 -40 -23 -49 -8 -10 -12 -18 -9 -18 4 0 -6 -24 -22 -54 -17
-30 -33 -70 -36 -90 -4 -20 -10 -36 -14 -36 -4 0 -15 -13 -24 -30 -12 -20 -26
-30 -43 -30 -13 0 -24 -4 -24 -10 0 -5 -5 -10 -11 -10 -13 0 -89 75 -89 88 0
5 -7 15 -15 22 -8 7 -15 25 -15 40 0 16 -7 30 -15 34 -8 3 -15 12 -15 20 0 7
-7 17 -16 20 -11 4 -14 13 -11 28 6 23 -8 58 -23 58 -5 0 -16 -8 -26 -17 -13
-13 -19 -14 -22 -5 -2 6 -17 12 -33 12 -22 0 -29 -5 -29 -20 0 -14 -7 -20 -22
-20 -16 0 -19 -3 -10 -8 9 -6 4 -16 -18 -37 -16 -16 -30 -35 -30 -42 0 -9 -14
-13 -40 -13 -33 0 -40 -3 -40 -20 0 -17 7 -20 40 -20 33 0 40 -3 40 -20 0 -17
-7 -20 -40 -20 -22 0 -40 5 -40 10 0 6 -4 10 -10 10 -5 0 -10 -18 -10 -41 l0
-40 -67 1 c-38 1 -94 1 -125 1 l-58 -1 0 -40 c0 -39 1 -40 35 -40 34 0 35 -1
35 -40 0 -33 -3 -40 -20 -40 -13 0 -20 -7 -20 -20 0 -17 -7 -20 -40 -20 -35 0
-40 3 -40 23 0 21 -4 22 -55 19 l-55 -4 0 -39 c0 -28 4 -39 15 -39 9 0 15 -9
15 -25 0 -18 -5 -25 -19 -25 -10 0 -21 -7 -25 -15 -3 -8 -12 -15 -21 -15 -11
0 -15 -11 -15 -40 l0 -40 -40 0 -40 0 0 -40 0 -40 -40 0 c-36 0 -40 -2 -40
-25 0 -18 -5 -25 -20 -25 -22 0 -23 -4 -20 -67 l2 -43 -101 0 c-61 0 -101 4
-101 10 0 6 -18 10 -40 10 -22 0 -40 -4 -40 -10 0 -5 18 -10 40 -10 l40 0 0
-40 0 -40 -120 0 -120 0 0 -40 0 -40 -40 0 -40 0 0 -40 c0 -37 -2 -40 -27 -41
l-28 -1 28 -11 c15 -6 27 -17 27 -24 0 -9 14 -13 40 -13 29 0 40 -4 40 -15 0
-10 11 -15 35 -15 44 0 42 0 90 -21 53 -24 115 -25 115 -2 0 12 11 6 40 -22
22 -21 40 -34 40 -27 0 7 16 12 40 12 41 0 53 -13 23 -24 -9 -4 -12 -10 -7
-15 15 -13 91 -31 107 -25 8 3 21 -3 28 -14 8 -11 30 -22 49 -25 57 -9 129
-32 142 -45 7 -7 31 -12 55 -12 36 0 43 -3 43 -20 0 -20 14 -21 68 -4 6 2 12
-3 12 -10 0 -8 18 -21 40 -30 22 -9 40 -19 40 -24 0 -8 73 -42 90 -42 5 0 21
-16 35 -35 15 -19 30 -34 33 -34 26 4 33 -3 27 -23 -8 -25 -37 -95 -63 -147
-9 -19 -17 -39 -18 -45 0 -6 -4 -18 -7 -26 -3 -8 -8 -26 -10 -40 -3 -14 -10
-38 -16 -55 -6 -16 -13 -48 -17 -69 -3 -25 -8 -35 -13 -27 -6 9 -10 5 -13 -12
-4 -19 -1 -24 10 -20 12 5 12 2 3 -15 -6 -11 -11 -30 -11 -42 0 -12 -3 -19 -7
-17 -5 3 -9 -24 -11 -59 -2 -36 -12 -91 -23 -122 -11 -31 -23 -65 -26 -74 -3
-10 -9 -18 -13 -18 -5 0 -11 8 -13 18 -3 11 -5 8 -6 -9 -1 -18 -8 -28 -22 -32
-12 -3 -19 -11 -16 -19 7 -21 -34 -88 -55 -88 -10 0 -18 -6 -18 -12 0 -7 -14
-42 -31 -78 -17 -35 -26 -66 -21 -68 6 -2 2 -28 -8 -63 -10 -33 -20 -81 -21
-107 -2 -30 -9 -51 -20 -59 -19 -14 -28 -67 -32 -179 -1 -50 -6 -71 -15 -70
-9 1 -14 -31 -19 -119 -11 -211 -10 -231 12 -255 18 -20 20 -20 27 -3 8 18 7
0 -5 -52 -2 -11 -2 -14 0 -8 3 7 9 13 14 13 12 0 12 -37 -1 -45 -5 -3 -10 -24
-10 -45 0 -21 -5 -42 -12 -46 -7 -5 -8 -3 -3 7 8 12 6 12 -8 1 -19 -16 -41
-77 -32 -92 3 -5 -5 -14 -18 -19 -17 -7 -27 -20 -32 -43 -8 -43 -32 -95 -48
-105 -7 -4 -32 -46 -56 -93 -24 -47 -47 -87 -51 -90 -10 -7 -50 -100 -50 -116
0 -8 -4 -14 -10 -14 -5 0 -10 -6 -10 -13 0 -18 -23 -67 -32 -67 -4 0 -12 -18
-18 -40 -6 -22 -17 -40 -24 -40 -8 0 -16 -10 -20 -22 -19 -76 -30 58 -41 492
-11 453 -17 807 -15 825 1 11 2 27 1 35 0 8 -2 108 -4 222 -3 180 -6 212 -23
245 -31 61 -78 90 -161 98 -30 3 -62 9 -71 14 -15 7 -63 15 -162 26 -19 2 -66
9 -105 15 -131 19 -210 29 -270 34 -33 3 -86 8 -117 12 l-58 7 0 -76 0 -75 43
-6 c76 -12 171 -28 212 -36 22 -5 82 -14 133 -21 50 -6 92 -15 92 -20 0 -4 35
-10 78 -12 95 -6 202 -25 220 -40 14 -11 13 -345 -2 -732 -3 -93 -6 -180 -6
-192 0 -39 -17 -25 -24 19 -4 24 -6 109 -6 189 1 125 -2 156 -20 210 -12 35
-18 65 -13 66 12 4 9 209 -4 224 -6 8 -14 28 -17 45 -11 51 -61 79 -163 91
-24 3 -43 9 -43 13 0 13 -41 19 -67 9 -17 -6 -34 -5 -58 6 -23 9 -35 10 -35 3
0 -11 -139 -6 -268 8 l-52 7 2 -1079 3 -1078 40 -2 c22 0 69 3 105 7 36 4 124
10 195 13 72 3 200 10 285 16 85 7 169 11 187 11 36 -2 122 30 153 56 12 10
26 29 31 42 6 15 15 21 24 17 11 -4 15 2 15 19 0 18 6 25 18 25 28 0 34 -11
15 -32 -15 -17 -15 -18 7 -18 22 0 22 -1 15 -77 -4 -43 -10 -80 -15 -83 -4 -3
-10 -36 -13 -74 -4 -38 -11 -74 -17 -80 -5 -5 -10 -27 -10 -47 0 -21 -4 -39
-8 -41 -4 -1 -17 -25 -28 -52 -20 -49 -44 -72 -44 -42 0 10 -9 16 -24 16 -13
0 -31 3 -40 6 -11 4 -16 1 -16 -10 0 -25 -86 -22 -99 3 -6 10 -23 22 -38 26
-16 3 -36 13 -45 22 -12 11 -28 14 -55 9 -89 -16 -139 -66 -156 -155 -10 -54
-14 -59 -45 -71 -49 -17 -83 -50 -77 -71 9 -26 -12 -60 -32 -52 -10 4 -14 2
-11 -7 2 -7 -15 -31 -39 -53 l-43 -40 0 -83 c0 -49 4 -84 10 -84 6 0 10 -47
10 -120 0 -73 -4 -120 -10 -120 -5 0 -10 18 -10 40 0 22 -4 40 -10 40 -6 0
-10 -33 -10 -79 0 -44 -5 -92 -10 -107 -10 -26 -11 -26 -30 -9 -20 18 -20 17
-20 -13 0 -29 -3 -32 -30 -32 -28 0 -30 -2 -30 -40 0 -26 -5 -40 -13 -40 -7 0
-30 -17 -50 -38 l-37 -38 0 -279 0 -278 23 21 c13 12 32 22 43 22 11 0 45 22
75 48 29 27 92 69 139 94 47 26 106 64 130 86 25 21 57 45 71 53 95 51 172
124 229 215 17 28 40 32 40 7 0 -10 -9 -59 -20 -109 -10 -50 -19 -104 -18
-120 0 -52 -21 -244 -30 -262 -10 -21 -9 -134 2 -184 8 -38 8 -38 -23 -38 -20
0 -31 -5 -31 -14 0 -19 48 -56 65 -50 7 3 20 -5 28 -17 14 -20 16 -20 15 -3
-1 26 28 132 47 169 8 17 22 46 30 65 23 50 47 92 73 125 12 15 22 34 22 41 0
18 43 41 48 25 2 -6 10 -11 17 -11 13 0 25 -21 25 -44 0 -7 -12 -18 -26 -24
-18 -9 -24 -19 -22 -35 2 -18 9 -22 36 -22 18 0 37 -7 42 -15 14 -21 12 -94
-2 -108 -6 -6 -9 -15 -5 -18 3 -4 13 1 22 10 20 20 34 20 41 2 9 -23 -68 -156
-104 -182 -10 -7 -31 -38 -47 -69 -17 -32 -46 -76 -66 -99 -19 -22 -38 -49
-42 -58 -3 -9 -17 -24 -30 -32 -21 -15 -28 -14 -70 0 -38 13 -47 20 -47 39 0
30 -12 37 -44 29 -21 -5 -25 -11 -20 -29 4 -16 1 -24 -10 -27 -13 -2 -6 -15
29 -55 39 -44 44 -56 36 -72 -13 -24 0 -66 24 -75 22 -8 22 -8 28 12 2 11 17
21 34 25 21 4 33 14 37 29 7 30 66 69 97 66 20 -3 24 2 27 28 2 17 13 41 26
53 20 19 24 20 36 6 10 -12 10 -21 1 -43 -9 -22 -9 -35 0 -55 10 -22 8 -30
-10 -55 -23 -33 -19 -62 9 -62 23 0 29 16 22 59 -6 37 7 51 49 51 33 0 41 -8
28 -31 -8 -16 -4 -22 26 -36 19 -9 35 -23 35 -31 0 -27 -21 -52 -44 -52 -26 0
-61 -33 -51 -49 9 -16 35 -13 41 4 8 19 28 19 48 0 25 -25 58 -2 56 38 -3 48
-1 57 11 57 7 0 10 -18 8 -47 -1 -27 1 -67 6 -91 l8 -42 53 0 c40 0 54 4 54
14 0 23 29 27 42 6 21 -33 45 -25 41 13 -4 40 26 83 52 73 12 -4 15 -13 11
-29 -22 -78 -22 -79 20 -75 36 3 39 5 37 31 -2 15 -4 39 -5 55 -3 23 1 27 25
30 26 3 27 2 27 -47 0 -28 -4 -51 -10 -51 -5 0 -10 -4 -10 -10 0 -7 384 -10
1133 -10 1252 1 1184 -3 1160 61 -10 25 -9 38 1 64 9 21 10 37 4 49 -8 15 -12
14 -30 -9 -15 -19 -19 -34 -14 -56 6 -33 -9 -73 -25 -64 -5 4 -9 17 -9 31 0
14 -9 34 -20 46 -22 24 -26 42 -8 36 16 -6 73 60 75 86 0 12 4 37 8 57 6 30 3
40 -19 64 -25 27 -35 65 -17 65 5 0 16 -10 24 -23 16 -22 16 -22 16 -1 1 26
45 57 69 50 15 -5 17 0 14 38 -3 31 -8 43 -17 40 -7 -3 -15 5 -19 18 -11 42
-7 58 14 58 11 0 20 5 20 10 0 6 7 10 15 10 11 0 15 11 15 43 0 31 3 38 10 27
9 -13 11 -13 20 0 7 11 4 17 -11 22 -15 6 -18 13 -13 35 3 16 14 33 23 40 9 7
25 21 36 31 11 11 30 25 43 32 19 9 21 14 11 26 -6 8 -22 14 -35 14 -13 0 -24
6 -24 13 0 20 22 37 47 37 13 0 23 5 23 10 0 6 -13 10 -29 10 -34 0 -49 26
-21 35 10 3 29 22 40 40 21 33 21 36 4 52 -16 17 -16 18 -1 21 10 2 24 17 33
33 9 18 25 32 42 35 28 6 41 37 21 49 -12 8 -11 45 2 45 5 0 7 5 4 11 -4 6
-14 8 -22 4 -23 -8 -73 17 -73 38 0 9 4 25 10 35 12 21 34 104 31 116 -1 4 3
14 9 21 6 7 9 21 8 31 -2 11 1 20 6 21 5 0 13 8 18 17 5 9 17 16 27 16 18 0
39 29 23 31 -4 1 -18 3 -32 5 -73 10 -100 17 -100 24 0 5 -9 12 -21 15 -33 11
-73 57 -91 105 -30 79 -72 273 -71 324 1 27 -4 71 -11 97 -14 57 0 195 23 223
12 14 11 16 -3 16 -13 0 -15 6 -10 26 6 22 4 25 -12 20 -17 -5 -19 0 -18 47 1
81 3 97 14 97 6 0 15 -11 20 -25 5 -14 14 -25 20 -25 5 0 10 -9 10 -20 0 -11
5 -20 10 -20 15 0 12 28 -6 56 -12 18 -15 37 -10 71 3 25 2 51 -3 57 -5 6 -10
25 -13 43 -4 32 -1 36 57 59 17 7 15 9 -13 12 -18 2 -30 7 -28 10 2 4 -1 35
-8 70 -8 34 -9 59 -4 56 5 -3 6 15 2 44 -4 32 -2 52 5 56 6 4 9 19 5 34 -6 26
-5 26 14 -4 20 -31 42 -51 42 -39 0 4 -14 26 -30 50 -40 59 -49 85 -37 112 11
25 41 32 120 29 62 -3 83 8 45 23 -13 6 -17 10 -10 10 6 1 12 6 12 11 0 7 -13
8 -36 4 -28 -5 -42 -2 -64 15 -16 11 -36 21 -45 21 -8 0 -15 5 -15 10 0 6 7
10 15 10 8 0 15 5 15 10 0 6 -7 10 -15 10 -8 0 -15 -5 -15 -12 0 -6 -7 -4 -18
5 -21 19 -57 22 -67 7 -3 -6 -11 -10 -17 -10 -6 0 -5 7 3 17 12 15 12 16 -4
10 -12 -5 -30 1 -48 14 l-29 20 0 -20 c0 -26 -16 -27 -23 -2 -4 15 -11 18 -28
14 -13 -4 -27 -11 -31 -17 -4 -7 -13 -4 -26 7 -12 11 -35 17 -65 17 -25 0 -49
5 -53 12 -4 7 -3 8 4 4 7 -4 12 -2 12 3 0 15 -13 14 -36 -3 -13 -10 -23 -11
-31 -4 -7 6 -19 8 -27 5 -16 -6 -36 11 -36 32 0 8 -15 44 -34 80 -18 36 -41
91 -51 121 -20 62 -46 122 -80 191 -14 29 -19 51 -14 56 6 6 2 19 -9 34 -26
33 -32 55 -20 67 6 6 6 12 -1 16 -6 4 -11 18 -11 32 0 14 -8 41 -18 62 -10 20
-17 45 -14 56 2 10 -2 29 -9 42 -9 18 -9 27 0 38 8 10 9 16 1 21 -5 3 -10 17
-10 31 0 14 4 22 10 19 14 -9 12 7 -5 28 -11 15 -11 24 -2 45 9 19 9 26 0 29
-14 5 -38 71 -29 80 3 4 6 -1 6 -11 0 -9 5 -14 10 -11 6 4 7 13 1 23 -4 9 -6
23 -3 31 3 8 0 11 -6 7 -7 -4 -6 6 2 26 12 27 20 34 50 36 32 3 36 0 37 -20 1
-17 3 -18 6 -5 6 21 12 22 27 2 6 -9 25 -18 41 -20 17 -3 42 -8 57 -11 23 -5
30 -1 38 20 9 26 33 35 44 17 7 -11 56 10 55 24 -3 29 2 33 41 28 48 -7 55 12
8 21 -78 16 -99 18 -111 8 -7 -6 -35 -8 -73 -3 -68 8 -121 39 -130 77 -3 13
-12 24 -20 24 -16 0 -15 -3 -20 74 -2 33 -9 63 -15 67 -7 4 -10 13 -7 21 6 14
-16 41 -26 31 -3 -4 -7 7 -7 23 -2 28 -2 28 -9 -6 l-7 -35 -2 32 c-1 23 -5 31
-15 27 -15 -6 -36 62 -42 135 -1 24 -7 47 -12 50 -12 8 -48 150 -45 176 7 57
15 85 24 80 8 -5 13 22 12 62 -1 7 3 11 7 8 8 -5 20 18 20 38 0 7 -4 6 -10 -3
-15 -24 -12 5 6 50 9 22 20 37 25 34 5 -3 2 -17 -7 -32 l-16 -27 20 25 c25 30
31 59 18 82 -13 23 11 79 25 57 5 -7 9 -10 9 -5 0 5 7 3 15 -4 9 -7 15 -8 15
-2 0 5 -7 13 -16 16 -11 4 -14 13 -10 30 4 15 1 26 -6 28 -6 2 -9 12 -5 21 4
10 12 14 22 11 8 -3 15 -1 15 6 0 6 4 9 9 5 5 -3 13 4 16 16 4 12 12 18 21 15
8 -3 14 -1 14 4 0 6 6 9 12 7 7 -1 14 8 16 21 2 12 9 22 15 22 7 0 17 11 23
25 10 21 9 25 -8 31 -12 3 -17 11 -14 20 3 8 -1 26 -10 40 -19 28 -13 32 11 8
9 -9 19 -14 22 -10 4 3 -2 12 -12 20 -12 9 -15 15 -7 20 7 4 12 4 12 0 0 -4
11 3 25 16 24 23 33 50 17 50 -4 0 -13 -5 -20 -12 -9 -9 -12 -9 -12 0 0 7 5
12 11 12 5 0 15 14 21 31 7 19 15 28 24 25 8 -3 31 3 52 13 20 11 57 23 82 26
24 4 51 15 58 24 10 12 15 13 18 4 9 -20 23 -15 36 12 9 20 7 30 -12 57 -12
18 -40 47 -61 63 -21 17 -38 36 -39 44 0 7 -6 11 -15 8 -8 -4 -17 -2 -20 3
-11 18 37 10 66 -11 21 -15 29 -17 29 -7 0 8 -21 29 -46 46 -25 18 -43 28 -39
22 3 -5 -13 1 -37 13 -30 16 -42 28 -40 41 2 11 -1 15 -7 11 -7 -3 -11 3 -11
16 0 18 -2 19 -15 9 -12 -10 -15 -10 -15 1 0 8 9 20 20 27 11 7 20 21 20 32 0
23 10 26 29 8 10 -11 12 -9 11 7 -4 33 0 41 10 25 8 -13 12 -12 27 4 17 18 17
18 1 13 -10 -4 -18 -2 -18 3 0 6 7 10 15 10 18 0 20 16 3 24 -7 3 0 4 16 1 25
-5 28 -4 23 15 -5 18 -2 21 15 17 33 -9 46 2 42 36 -3 21 -15 41 -36 59 -18
14 -35 25 -37 23 -6 -7 -39 38 -36 50 1 5 0 7 -2 3 -8 -14 -23 -8 -23 8 0 8
-4 12 -10 9 -5 -3 -10 3 -10 14 0 12 4 21 10 21 5 0 7 28 5 68 -5 67 -5 67 10
32 15 -35 15 -35 8 25 -6 50 -7 132 -4 243 1 16 7 22 24 22 17 0 19 2 7 9 -8
6 -17 8 -20 6 -12 -7 -9 125 5 200 8 44 17 102 20 128 3 26 10 59 15 73 6 14
7 30 4 36 -5 7 -2 8 6 3 10 -6 12 -4 7 8 -3 10 -2 17 3 17 6 0 10 4 10 10 0 5
14 32 30 61 17 28 32 56 33 63 1 6 17 21 35 34 38 27 41 35 7 22 -16 -6 -25
-6 -25 0 0 6 6 10 13 10 10 0 69 81 72 100 4 22 30 50 55 58 16 6 30 18 30 26
0 9 7 16 15 16 8 0 15 4 15 8 0 5 17 17 37 28 21 10 44 25 51 32 23 21 53 34
68 28 8 -3 14 0 14 6 0 6 11 8 30 5 33 -7 60 0 60 15 0 6 -7 7 -16 4 -9 -3
-12 -2 -8 5 4 6 21 8 46 4 35 -6 39 -5 36 12 -2 15 4 19 39 21 28 2 40 7 37
15 -2 7 4 13 16 14 11 1 20 -2 20 -8 0 -5 8 -9 18 -8 10 0 12 3 5 6 -20 8 -15
23 7 23 11 0 20 -6 20 -12 0 -10 3 -9 9 1 6 9 10 10 16 2 5 -9 10 -9 21 0 9 8
18 8 27 1 18 -15 107 -8 117 9 6 8 6 15 0 17 -6 2 -10 8 -10 13 0 14 26 10 40
-6 7 -9 28 -15 49 -14 33 1 34 2 11 9 -15 5 -18 8 -8 9 25 1 49 -10 42 -20 -7
-12 7 -11 26 1 13 9 13 11 0 19 -8 6 -11 13 -8 16 10 11 28 -4 38 -31 5 -13
14 -24 20 -24 6 0 6 9 0 26 -7 19 -7 23 2 18 11 -7 10 -4 -9 44 -3 6 2 12 11
12 9 0 16 -3 16 -7 1 -14 40 -56 47 -50 3 4 0 14 -8 23 -13 16 -12 16 9 5 14
-7 22 -21 22 -36 0 -14 5 -25 10 -25 6 0 12 0 15 0 3 0 4 3 3 8 -2 4 -6 6 -10
5 -14 -5 -8 15 6 20 16 6 46 -22 46 -42 0 -8 10 -4 24 10 28 27 71 37 62 14
-3 -8 -1 -28 5 -43 10 -24 12 -25 18 -8 7 17 8 18 14 3 7 -20 47 -22 66 -4 11
10 12 6 6 -20 -6 -32 -6 -33 23 -27 24 5 31 2 35 -12 4 -17 5 -17 6 -1 1 19
21 24 21 5 0 -9 3 -9 11 -1 13 13 39 -6 39 -29 0 -8 5 -6 11 5 10 17 13 16 42
-13 24 -25 33 -29 35 -17 5 24 32 30 32 7 0 -13 5 -18 15 -14 8 4 15 1 15 -6
0 -10 3 -10 15 0 22 18 18 -3 -5 -28 -22 -24 -26 -37 -7 -25 6 4 21 8 32 9 11
0 31 4 45 9 22 7 23 6 11 -9 -12 -15 -8 -20 12 -17 4 1 3 -8 -3 -19 -9 -17 -7
-22 13 -31 16 -7 25 -19 25 -35 0 -34 9 -40 30 -21 19 17 43 23 41 10 -4 -25
3 -35 20 -30 14 3 19 -1 19 -19 0 -12 7 -30 16 -39 22 -23 20 -35 -6 -36 -21
-1 -21 -2 -3 -6 40 -9 74 -25 79 -39 3 -8 -1 -14 -9 -14 -8 0 -15 5 -15 10 0
6 -7 10 -15 10 -20 0 -19 -19 1 -27 8 -3 20 -17 26 -32 9 -22 11 -23 17 -8 6
16 8 15 26 -5 10 -13 18 -25 16 -27 -1 -2 4 -8 13 -13 9 -5 14 -14 10 -19 -3
-5 -2 -15 3 -22 5 -7 10 -25 12 -41 1 -16 9 -46 17 -68 8 -23 14 -50 14 -62 0
-12 7 -31 16 -42 14 -18 15 -16 9 26 -5 37 -4 43 7 32 7 -7 14 -27 15 -45 1
-18 5 -45 8 -62 l6 -30 -15 25 c-8 14 -15 20 -16 14 0 -6 8 -22 19 -35 10 -13
20 -33 22 -43 2 -11 10 -21 17 -24 11 -3 12 0 3 15 -6 12 -7 31 -2 49 l8 29
12 -30 c7 -16 14 -43 15 -60 2 -16 10 -44 19 -62 21 -40 22 -64 2 -37 -8 10
-15 14 -15 8 0 -6 8 -18 18 -27 10 -9 19 -31 20 -49 2 -18 11 -42 21 -53 21
-23 46 -65 47 -80 0 -5 10 -32 23 -58 12 -27 20 -54 17 -60 -2 -7 -5 -4 -5 6
-1 9 -7 17 -15 17 -13 0 -13 -4 0 -27 7 -16 14 -35 15 -43 0 -10 3 -8 8 5 5
12 7 -9 6 -52 -2 -40 1 -73 5 -73 5 0 10 5 12 11 2 6 11 -6 21 -26 10 -20 13
-34 7 -30 -16 10 -12 0 20 -60 17 -30 30 -66 30 -80 0 -13 5 -27 10 -30 6 -3
10 -16 10 -29 0 -12 3 -26 8 -30 4 -4 7 -11 8 -14 2 -32 18 -72 27 -72 8 0 8
-3 -1 -9 -11 -7 -11 -11 2 -24 9 -8 16 -24 16 -34 0 -10 5 -36 12 -58 10 -37
12 -38 18 -15 l6 25 9 -25 c5 -15 4 -25 -3 -28 -7 -2 -1 -14 13 -28 14 -14 25
-33 25 -43 0 -10 7 -24 15 -31 8 -7 15 -17 15 -23 0 -6 7 -18 15 -27 8 -9 17
-31 19 -49 2 -19 8 -36 14 -40 12 -7 52 -166 52 -206 0 -14 4 -34 9 -43 14
-28 24 -80 11 -62 -9 13 -11 13 -19 0 -7 -9 -6 -17 0 -21 12 -7 6 -152 -11
-273 -6 -43 -9 -85 -5 -93 3 -9 -1 -23 -8 -32 -8 -9 -17 -25 -21 -35 -5 -15
-4 -17 8 -7 9 8 16 8 20 2 4 -5 2 -12 -4 -16 -5 -3 -10 -15 -10 -26 0 -10 -7
-19 -15 -19 -20 0 -19 -16 1 -24 15 -6 15 -8 0 -30 -8 -14 -16 -40 -18 -58 -2
-36 -21 -83 -47 -111 -15 -17 -14 -20 3 -33 17 -12 17 -14 3 -20 -10 -3 -17
-17 -17 -31 0 -13 -4 -22 -9 -19 -5 3 -9 -18 -10 -47 0 -28 -3 -67 -7 -84 -4
-22 -2 -33 6 -33 16 0 2 -41 -21 -61 -22 -19 -24 -35 -6 -42 8 -4 8 -8 2 -14
-17 -14 -38 -76 -37 -108 1 -20 -1 -25 -7 -17 -5 9 -11 -4 -15 -37 -6 -43 -11
-53 -36 -66 -22 -11 -30 -23 -30 -43 0 -42 -11 -72 -26 -72 -9 0 -14 -11 -14
-27 0 -44 -11 -73 -27 -73 -8 0 -12 -4 -9 -9 4 -5 1 -22 -6 -38 -6 -15 -12
-35 -13 -43 -1 -9 -14 -29 -29 -45 -15 -16 -24 -35 -21 -43 3 -8 -6 -23 -20
-34 -14 -11 -23 -23 -20 -28 7 -11 -50 -87 -75 -100 -11 -6 -20 -16 -20 -24 0
-21 -64 -86 -85 -87 -12 0 -15 -3 -7 -6 18 -7 -35 -63 -59 -63 -17 0 -55 -28
-117 -88 -19 -17 -37 -32 -41 -32 -3 -1 -22 -14 -41 -30 -19 -17 -39 -30 -46
-30 -6 0 -17 -7 -24 -15 -11 -13 -15 -13 -22 -3 -6 10 -13 8 -27 -9 -11 -13
-26 -23 -35 -23 -9 0 -15 -6 -13 -13 1 -6 -6 -12 -16 -12 -10 0 -21 -5 -25
-11 -11 -16 -103 -61 -142 -68 -72 -15 -73 -16 -56 -35 9 -10 13 -21 9 -24 -3
-4 -3 -7 2 -7 4 0 13 7 19 15 9 12 19 12 55 4 24 -5 49 -8 55 -5 6 2 29 12 51
21 32 14 37 14 27 2 -10 -12 -8 -16 13 -21 l25 -6 -25 -28 c-14 -15 -25 -31
-24 -37 0 -5 3 -4 6 3 6 14 33 16 33 2 0 -5 -9 -19 -19 -29 -11 -11 -17 -22
-14 -25 3 -3 -1 -11 -8 -19 -24 -25 -69 -80 -111 -137 -22 -30 -45 -58 -52
-62 -8 -6 -7 -8 2 -8 7 0 29 16 48 36 46 50 43 30 -5 -28 -23 -28 -42 -43 -47
-38 -6 6 -14 2 -22 -10 -10 -16 -9 -18 3 -14 23 9 18 -10 -12 -43 -35 -37 -53
-68 -53 -89 0 -10 -10 -31 -23 -48 -13 -17 -31 -51 -41 -76 -10 -25 -24 -56
-33 -69 -8 -13 -10 -20 -4 -17 14 9 14 -8 0 -57 -16 -58 -18 -346 -2 -377 7
-14 13 -33 13 -43 0 -22 81 -192 119 -252 45 -70 135 -190 154 -204 10 -7 22
-23 28 -35 5 -11 14 -28 21 -37 15 -22 3 -49 -23 -49 -16 0 -20 -5 -16 -19 6
-24 -7 -46 -22 -37 -6 4 -9 10 -7 14 2 4 -18 7 -45 8 -27 1 -49 -3 -49 -7 0
-5 7 -9 15 -9 9 0 15 -9 15 -24 0 -28 19 -38 58 -30 53 10 116 -78 80 -114 -7
-7 -9 -13 -5 -13 4 -1 12 -3 17 -4 6 -1 16 -4 23 -5 6 -1 1 -5 -12 -9 -37 -10
-49 -36 -28 -59 23 -25 21 -49 -3 -62 -12 -6 -25 -22 -30 -36 -9 -22 -51 -36
-50 -16 1 14 27 42 41 42 10 0 10 3 1 12 -15 15 -16 50 -1 65 13 13 5 29 -21
43 -17 9 -22 5 -35 -26 -11 -27 -12 -41 -4 -56 9 -16 6 -24 -11 -43 -13 -14
-20 -33 -18 -46 2 -19 -2 -25 -19 -27 -16 -2 -23 2 -23 13 0 24 -25 28 -60 10
-34 -18 -35 -40 -1 -39 26 1 27 -8 1 -31 -17 -15 -22 -16 -36 -4 -19 16 -84
22 -84 9 0 -5 -13 -24 -30 -43 -22 -26 -26 -37 -18 -45 7 -7 18 -12 25 -12 7
0 13 -7 13 -16 0 -12 -10 -14 -47 -12 -40 3 -47 6 -45 22 2 10 1 25 -3 33 -5
14 -8 13 -25 -2 -11 -10 -20 -24 -20 -32 0 -7 -21 -23 -47 -34 -46 -19 -49
-33 -9 -41 13 -2 23 -15 29 -37 7 -28 5 -39 -11 -60 -10 -14 -25 -26 -33 -26
-7 0 -23 -10 -36 -22 -31 -31 -41 -29 -49 12 -3 20 -12 35 -20 35 -16 0 -18
-9 -15 -62 2 -28 -2 -39 -18 -48 -24 -12 -27 -37 -8 -65 7 -11 13 -41 12 -68
-1 -37 -6 -51 -23 -63 -31 -21 -29 -62 3 -74 15 -6 25 -17 25 -29 0 -23 -25
-47 -35 -31 -12 20 -37 11 -33 -12 2 -17 10 -23 27 -23 32 -1 47 -42 32 -87
-6 -17 -11 -53 -11 -80 0 -27 -4 -47 -8 -44 -15 9 -31 -9 -21 -24 8 -13 10
-13 18 -1 18 28 41 4 41 -44 l0 -45 240 0 c133 0 239 4 236 9 -3 5 1 14 9 21
9 8 15 30 15 56 0 34 7 51 30 77 20 23 27 40 23 55 -4 18 -1 22 16 22 14 0 21
-6 21 -19 0 -11 4 -22 9 -26 17 -10 33 35 26 73 -5 33 -3 40 23 59 17 12 32
19 36 16 3 -3 3 -26 -1 -50 -4 -30 -2 -47 6 -52 8 -5 7 -16 -5 -40 -17 -35
-14 -47 11 -38 8 4 16 19 16 37 2 44 2 45 23 65 13 13 17 28 13 49 -3 22 1 39
14 55 14 17 16 28 9 41 -14 27 -12 66 4 80 8 6 16 23 18 38 4 38 31 39 45 1
14 -36 26 -32 49 16 18 40 39 45 49 14 7 -20 -10 -67 -29 -80 -4 -4 -3 -16 3
-28 8 -14 10 -43 5 -83 -5 -48 -11 -62 -26 -66 -16 -4 -18 -10 -13 -31 10 -41
6 -70 -11 -101 -20 -32 -13 -60 14 -60 24 0 39 36 48 115 3 33 12 67 19 75 7
8 16 31 19 50 13 68 27 176 29 227 1 28 6 55 9 59 4 4 19 -1 34 -11 19 -12 29
-14 37 -6 17 17 27 13 27 -12 0 -13 9 -32 20 -42 26 -24 25 -37 -4 -63 -22
-19 -24 -24 -13 -57 8 -27 8 -41 -1 -55 -12 -20 -7 -50 9 -50 12 0 11 -37 -1
-45 -14 -9 -12 -44 4 -60 11 -12 15 -10 26 11 11 20 11 28 0 49 -11 20 -11 29
-1 49 8 14 10 36 6 54 -3 17 -2 40 4 51 6 11 12 33 12 48 3 50 9 61 34 61 14
0 25 -6 25 -14 0 -24 23 -27 40 -5 20 28 34 15 44 -40 7 -42 28 -64 52 -55 13
5 15 16 9 67 -7 56 -6 61 11 57 25 -4 34 -68 18 -124 -8 -28 -8 -47 -1 -59 7
-13 6 -29 -2 -52 -21 -57 7 -96 40 -56 13 14 15 12 21 -18 3 -19 9 -43 13 -55
4 -13 1 -27 -9 -37 -10 -10 -16 -33 -16 -62 0 -25 -7 -59 -15 -75 l-16 -30 73
0 73 0 0 40 c1 45 -21 56 -31 15 -8 -34 -42 -33 -50 0 -4 17 -1 32 10 44 9 10
18 38 20 62 10 112 36 159 36 64 0 -32 7 -51 25 -73 39 -47 48 -79 30 -115 -8
-16 -15 -32 -15 -34 0 -1 128 -3 285 -3 l284 0 7 37 c4 21 8 45 8 53 1 8 12
29 24 45 22 28 25 29 36 12 7 -9 18 -17 24 -17 18 0 33 37 31 72 -2 18 3 51
11 73 7 22 15 46 17 54 3 11 6 12 15 3 18 -18 28 -15 28 8 0 10 -7 23 -15 28
-9 4 -18 25 -22 45 -4 28 -2 38 11 43 9 3 23 1 31 -6 21 -17 25 -11 27 38 1
23 5 42 10 42 4 0 8 7 8 15 0 17 14 19 40 5 13 -7 21 -7 25 0 3 5 17 10 31 10
13 0 24 3 24 8 0 4 13 14 29 24 20 11 34 30 42 57 13 45 35 53 62 23 22 -25
21 -44 -4 -87 -25 -42 -16 -60 21 -42 27 14 37 48 47 162 5 64 23 95 55 95 11
0 31 13 45 30 13 16 31 30 38 30 16 0 60 55 70 88 10 35 -18 27 -60 -17 -21
-21 -50 -41 -65 -44 -19 -4 -30 -14 -34 -32 -7 -26 -41 -36 -48 -14 -6 19 -46
0 -60 -29 -7 -15 -27 -31 -43 -37 -17 -5 -41 -20 -55 -32 -14 -13 -32 -21 -41
-18 -12 4 -37 -13 -75 -50 -32 -30 -63 -55 -70 -55 -7 0 -20 10 -28 22 -15 21
-16 21 -35 4 -11 -10 -21 -28 -23 -40 -4 -27 -45 -35 -55 -10 -3 9 3 34 16 58
20 36 28 60 30 90 1 5 9 2 19 -7 25 -23 37 -21 49 5 11 25 -2 78 -18 78 -5 0
-9 7 -9 15 0 8 -7 15 -16 15 -12 0 -14 4 -7 13 10 12 16 33 31 106 7 34 35 62
48 48 10 -9 -13 -73 -38 -109 -16 -23 -17 -30 -6 -48 21 -33 43 -20 43 26 0
27 7 47 23 64 14 16 21 32 18 45 -6 24 30 66 50 58 10 -3 21 10 35 41 11 25
22 46 25 46 10 0 34 -28 34 -39 0 -21 31 -10 40 14 7 19 17 25 38 25 18 0 38
10 57 30 30 31 60 39 68 18 3 -9 10 -6 23 8 11 12 30 25 44 29 14 4 37 19 53
33 21 20 30 23 39 14 9 -9 9 -18 -1 -38 -16 -35 -7 -42 28 -21 16 9 37 14 51
10 27 -7 45 18 41 60 -1 15 2 28 8 28 33 5 36 2 36 -36 0 -38 1 -39 37 -42 28
-3 42 2 57 19 24 25 28 73 6 82 -8 3 -15 9 -15 14 0 20 40 53 67 55 22 2 29
-3 31 -20 2 -13 7 -23 12 -23 5 0 7 -7 4 -15 -4 -8 -4 -15 -2 -15 12 0 98 33
98 37 0 3 -9 18 -21 34 -18 26 -19 32 -7 59 11 26 18 30 50 30 29 0 41 6 54
25 35 53 53 13 22 -49 -11 -24 -18 -51 -15 -59 9 -24 75 4 114 49 62 72 75 84
89 84 8 0 14 -7 14 -16 0 -23 62 -12 92 16 13 12 40 30 61 41 l37 19 0 -24 c0
-14 -5 -28 -11 -32 -6 -3 -8 -17 -5 -29 3 -13 2 -27 -4 -30 -5 -3 -10 -17 -10
-29 0 -13 -7 -29 -15 -36 -17 -14 -20 -40 -5 -40 5 0 16 13 25 30 8 16 24 34
35 40 15 8 18 15 12 27 -14 24 8 73 33 73 11 0 29 6 40 14 29 19 102 28 126
15 17 -9 20 -17 16 -46 -7 -38 -4 -37 51 11 17 15 27 18 40 10 17 -10 48 -9
247 5 85 6 115 4 132 -6 17 -10 28 -10 46 -2 21 9 35 6 92 -25 37 -20 81 -36
97 -36 16 0 44 -11 62 -25 18 -14 38 -25 45 -25 6 0 31 -18 55 -40 24 -22 48
-40 55 -40 8 0 11 758 11 2976 l0 2976 -25 -16 c-15 -10 -46 -16 -80 -16 -40
0 -55 -4 -55 -14 0 -14 -79 -26 -181 -26 -46 0 -64 -5 -79 -20 -16 -16 -33
-20 -80 -20 -47 0 -60 -3 -60 -15 0 -11 -11 -15 -43 -15 -27 0 -63 -10 -93
-25 -27 -14 -66 -25 -88 -25 -22 0 -47 -6 -55 -13 -9 -8 -35 -19 -58 -26 -23
-6 -49 -18 -57 -26 -8 -8 -23 -15 -34 -15 -11 0 -22 -9 -25 -19 -2 -11 -15
-21 -27 -23 -34 -5 -48 -66 -59 -253 -16 -249 -24 -800 -14 -905 6 -56 7 -394
2 -828 -6 -654 -9 -736 -24 -758 -20 -31 -51 -43 -135 -55 -147 -21 -169 -22
-235 -4 -57 16 -73 16 -122 6 -103 -24 -173 -115 -173 -230 0 -25 -6 -53 -13
-62 -7 -9 -41 -26 -77 -38 -36 -12 -87 -30 -114 -39 -46 -16 -49 -16 -61 2 -8
10 -17 44 -22 75 -9 71 -10 455 -1 497 5 24 2 37 -12 55 -22 24 -25 66 -10
117 7 27 6 31 -3 23 -10 -8 -13 4 -12 52 0 34 -3 87 -7 117 -8 66 -18 223 -23
380 -2 63 -6 169 -9 235 -4 71 -2 114 3 106 13 -20 19 64 8 124 -4 28 -11 113
-14 190 -3 77 -6 151 -6 165 -1 14 -4 27 -8 30 -4 3 -3 28 1 55 8 52 -2 178
-21 255 -6 25 -12 97 -13 160 -1 63 -8 131 -14 150 -7 19 -13 67 -14 105 -2
39 -7 73 -11 76 -9 7 -16 78 -9 97 4 11 7 11 12 2 11 -18 28 -4 35 30 4 17 10
30 15 30 4 0 13 13 20 29 6 16 17 28 23 27 7 -2 9 -1 5 1 -5 3 -8 16 -8 30 0
25 1 25 18 10 10 -10 28 -17 40 -17 13 0 22 -6 22 -15 0 -8 4 -15 10 -15 5 0
7 7 3 16 -3 10 8 29 32 54 26 26 33 39 23 43 -11 5 -10 7 1 15 10 7 14 27 12
64 -4 88 -5 94 -23 112 -10 10 -18 27 -18 38 0 11 -10 39 -21 62 -12 22 -28
53 -35 68 -8 14 -14 33 -14 42 0 27 -23 66 -39 66 -13 0 -13 2 -3 9 10 6 11
13 3 27 -5 11 -17 43 -26 72 -10 32 -21 50 -28 45 -7 -4 -8 0 -4 12 5 11 -1
31 -13 52 -11 19 -20 54 -21 83 -2 34 -6 50 -15 50 -8 0 -16 12 -19 28 -14 64
-36 125 -55 149 -11 14 -20 34 -20 44 0 10 -4 21 -10 24 -5 3 -10 17 -10 31 0
15 -6 24 -15 24 -8 0 -15 4 -15 8 0 5 -19 14 -42 21 -29 9 -62 33 -103 74 -34
34 -65 69 -68 77 -4 8 -23 35 -42 60 -20 25 -38 53 -41 63 -4 10 -16 17 -30
17 -13 0 -24 4 -24 9 0 5 -17 15 -37 22 -21 6 -40 15 -43 18 -3 4 -21 17 -41
29 -40 24 -119 105 -119 122 0 5 -6 10 -13 10 -8 0 -19 10 -26 23 -7 12 -30
33 -52 47 -21 13 -39 30 -39 37 0 25 -43 56 -89 65 -25 4 -54 11 -63 14 -13 4
-16 1 -12 -10 7 -18 -7 -21 -23 -5 -6 6 -19 9 -29 6 -17 -4 -17 -6 4 -12 20
-7 31 -25 15 -25 -14 0 -78 41 -90 58 -20 25 -15 37 7 17 24 -22 39 -12 22 15
-16 26 -15 28 6 33 13 4 13 5 -4 6 -13 1 -24 9 -27 21 -3 12 -14 20 -27 20
-17 0 -21 4 -17 20 3 11 0 20 -5 20 -6 0 -21 11 -34 25 -13 14 -27 24 -31 24
-4 -1 -16 1 -25 5 -10 5 -31 1 -50 -8 -36 -18 -83 -13 -92 10 -3 8 -14 14 -24
14 -11 0 -25 6 -32 14 -6 8 -18 12 -26 9 -8 -3 -22 -2 -31 3 -15 6 -13 8 12
14 29 7 28 8 -10 9 -23 0 -67 10 -100 22 -32 11 -68 19 -80 17 -12 -3 -27 1
-33 9 -12 12 -41 17 -82 14 -10 0 -11 1 -2 5 17 8 15 24 -4 24 -10 0 -14 6
-11 15 5 11 0 13 -23 8 -23 -4 -30 -2 -30 10 0 10 -6 14 -15 11 -11 -4 -15 1
-15 17 -1 13 -7 35 -15 49 -8 14 -14 37 -15 53 0 15 -3 27 -8 27 -7 0 -25 30
-38 62 -6 16 -47 18 -610 18 -389 0 -605 -4 -609 -10z m439 -1035 c-4 -8 -8
-15 -10 -15 -2 0 -4 7 -4 15 0 8 4 15 10 15 5 0 7 -7 4 -15z m409 -80 c-3 -9
-8 -14 -10 -11 -3 3 -2 9 2 15 9 16 15 13 8 -4z m466 -244 c17 -17 18 -21 5
-32 -8 -6 -17 -9 -21 -5 -3 3 -1 6 5 6 20 0 14 18 -8 25 -11 3 -20 11 -20 16
0 15 19 10 39 -10z m116 -81 c3 -5 1 -10 -4 -10 -6 0 -11 5 -11 10 0 6 2 10 4
10 3 0 8 -4 11 -10z m55 -65 c0 -8 -4 -15 -9 -15 -5 0 -14 7 -21 15 -10 13 -9
15 9 15 12 0 21 -6 21 -15z m-2949 -92 c-12 -20 -14 -14 -5 12 4 9 9 14 11 11
3 -2 0 -13 -6 -23z m3009 -26 c0 -5 -4 -5 -10 -2 -5 3 -10 14 -10 23 0 15 2
15 10 2 5 -8 10 -19 10 -23z m70 -97 c0 -5 -5 -10 -11 -10 -5 0 -7 5 -4 10 3
6 8 10 11 10 2 0 4 -4 4 -10z m-3570 -40 c0 -5 -18 -10 -41 -10 -24 0 -38 4
-34 10 3 6 22 10 41 10 19 0 34 -4 34 -10z m3578 -70 c0 -32 -1 -33 -8 -10 -4
14 -8 39 -8 55 -1 25 1 27 8 10 5 -11 8 -36 8 -55z m59 -122 c-3 -8 -6 -5 -6
6 -1 11 2 17 5 13 3 -3 4 -12 1 -19z m43 -19 c0 -6 -4 -7 -10 -4 -5 3 -10 11
-10 16 0 6 5 7 10 4 6 -3 10 -11 10 -16z m47 -101 c-3 -8 -6 -5 -6 6 -1 11 2
17 5 13 3 -3 4 -12 1 -19z m38 -125 c9 -21 15 -83 9 -83 -7 0 -27 52 -30 78
-3 26 11 29 21 5z m-4215 -37 c0 -2 -7 -9 -15 -16 -12 -10 -15 -10 -15 4 0 9
7 16 15 16 8 0 15 -2 15 -4z m4250 -77 c0 -6 -4 -7 -10 -4 -5 3 -10 11 -10 16
0 6 5 7 10 4 6 -3 10 -11 10 -16z m-4440 -169 c0 -5 -18 -10 -40 -10 -22 0
-40 5 -40 10 0 6 18 10 40 10 22 0 40 -4 40 -10z m-160 -80 c0 -5 -18 -10 -40
-10 -22 0 -40 5 -40 10 0 6 18 10 40 10 22 0 40 -4 40 -10z m4757 -302 c-3 -8
-6 -5 -6 6 -1 11 2 17 5 13 3 -3 4 -12 1 -19z m-5317 -18 c0 -5 -18 -10 -40
-10 -22 0 -40 5 -40 10 0 6 18 10 40 10 22 0 40 -4 40 -10z m2531 -63 c-13
-13 -15 1 -4 30 7 17 8 17 11 -1 2 -10 -1 -23 -7 -29z m79 -168 c0 -5 -9 -4
-19 3 -11 7 -17 16 -14 20 5 10 33 -10 33 -23z m-14 -91 c17 -19 17 -21 2 -15
-11 4 -22 0 -28 -11 -11 -16 -11 -15 -6 1 3 10 6 25 6 33 0 19 4 18 26 -8z
m-162 -394 c8 -22 7 -34 -3 -34 -5 0 -11 11 -13 25 -6 28 6 34 16 9z m-137
-216 c-3 -8 -6 -5 -6 6 -1 11 2 17 5 13 3 -3 4 -12 1 -19z m-134 -163 c-3 -9
-8 -14 -10 -11 -3 3 -2 9 2 15 9 16 15 13 8 -4z m26 -352 c1 -7 -3 -13 -9 -13
-5 0 -10 15 -9 33 0 27 2 29 9 12 5 -11 9 -26 9 -32z m11 -59 c0 -13 -4 -24
-9 -24 -5 0 -9 13 -9 30 1 35 18 30 18 -6z m3300 -168 c0 -3 -4 -8 -10 -11 -5
-3 -10 -1 -10 4 0 6 5 11 10 11 6 0 10 -2 10 -4z m-4773 -48 c-3 -8 -6 -5 -6
6 -1 11 2 17 5 13 3 -3 4 -12 1 -19z m4744 -31 c-10 -9 -11 -8 -5 6 3 10 9 15
12 12 3 -3 0 -11 -7 -18z m-4790 -118 c-10 -23 -10 -23 -10 7 -1 17 2 34 7 38
11 12 14 -18 3 -45z m-14 -71 c-3 -8 -6 -5 -6 6 -1 11 2 17 5 13 3 -3 4 -12 1
-19z m4904 -137 c6 10 9 5 10 -16 0 -16 3 -25 5 -18 3 7 12 9 21 6 11 -4 14
-2 9 5 -4 7 -2 12 3 12 6 0 10 -15 8 -35 -1 -19 -6 -35 -12 -35 -5 0 -4 -4 4
-9 7 -5 10 -14 7 -20 -4 -6 -12 -9 -17 -6 -5 4 -9 2 -9 -3 0 -15 -44 -23 -80
-15 l-33 6 6 63 c3 34 14 80 23 101 l16 38 15 -44 c11 -31 18 -39 24 -30z
m-3287 -87 c3 -8 2 -12 -4 -9 -6 3 -10 10 -10 16 0 14 7 11 14 -7z m3056 -68
c0 -11 -19 -15 -25 -6 -3 5 1 10 9 10 9 0 16 -2 16 -4z m-4693 -38 c-3 -8 -6
-5 -6 6 -1 11 2 17 5 13 3 -3 4 -12 1 -19z m1612 -23 c0 -5 -4 -3 -9 5 -5 8
-9 22 -9 30 0 16 17 -16 18 -35z m-2342 -87 c-3 -8 -6 -5 -6 6 -1 11 2 17 5
13 3 -3 4 -12 1 -19z m2396 -35 c-4 -11 -3 -14 5 -9 7 4 12 3 12 -3 0 -12 -20
-25 -21 -14 -1 4 -2 26 -4 48 -3 31 -1 35 6 17 4 -12 5 -30 2 -39z m-1660 17
c-3 -12 -8 -19 -11 -16 -5 6 5 36 12 36 2 0 2 -9 -1 -20z m1700 -387 c19 -35
21 -43 8 -43 -9 0 -51 78 -51 94 0 12 23 -16 43 -51z m-1769 38 c3 -5 -1 -14
-9 -21 -13 -10 -15 -9 -15 9 0 21 14 28 24 12z m1806 -52 c17 -34 26 -58 21
-54 -15 9 -14 -18 1 -33 7 -7 8 -12 4 -12 -10 0 -45 42 -46 54 0 4 7 6 15 2
19 -7 19 -4 -3 36 -22 39 -33 68 -27 68 3 0 19 -27 35 -61z m-65 -49 c4 -6 11
-7 17 -4 7 4 8 2 4 -4 -8 -14 24 -73 36 -66 4 3 8 -4 8 -15 0 -12 5 -20 12
-18 7 1 18 -17 26 -40 8 -24 18 -43 24 -43 5 0 6 5 3 10 -4 6 3 9 17 7 18 -3
27 -17 45 -65 27 -76 31 -96 18 -99 -6 -1 -9 5 -7 14 2 8 -1 12 -7 8 -6 -3
-11 0 -11 9 0 8 -4 16 -9 18 -4 2 -12 14 -16 28 -7 24 -7 24 9 5 18 -24 19
-13 2 34 -13 36 -22 33 -27 -9 -4 -27 18 -90 31 -90 4 0 7 -11 6 -25 -1 -33
-20 -26 -26 11 -4 19 -8 25 -13 17 -5 -7 -5 -19 -1 -25 4 -8 3 -10 -2 -5 -5 5
-15 23 -22 40 l-12 32 5 -37 c7 -44 4 -46 -30 -16 -17 15 -35 53 -55 115 -32
99 -35 118 -21 109 5 -3 2 13 -5 35 -8 22 -11 45 -8 51 4 7 2 8 -4 4 -7 -4
-12 -1 -12 8 0 18 16 21 25 6z m135 -81 c0 -7 -6 -4 -15 7 -19 25 -19 40 0 20
8 -8 15 -20 15 -27z m-30 -9 c0 -5 -7 -7 -15 -4 -8 4 -15 8 -15 10 0 2 7 4 15
4 8 0 15 -4 15 -10z m25 -41 c10 -30 0 -33 -13 -4 -6 14 -7 25 -2 25 5 0 12
-9 15 -21z m25 -7 c0 -15 -2 -15 -10 -2 -13 20 -13 33 0 25 6 -3 10 -14 10
-23z m-1873 -129 c-3 -10 -5 -4 -5 12 0 17 2 24 5 18 2 -7 2 -21 0 -30z m-99
-203 c-3 -27 -1 -50 3 -50 5 0 9 -5 9 -11 0 -6 -7 -8 -15 -5 -20 7 -31 -20
-16 -38 9 -11 6 -12 -14 -8 -23 4 -25 2 -25 -34 0 -50 -14 -74 -32 -56 -8 8
-8 12 -1 12 6 0 13 19 17 43 12 96 18 116 37 122 11 4 21 20 25 41 9 51 17 41
12 -16z m34 25 c-2 -14 -6 -25 -8 -25 -2 0 -4 11 -4 25 0 14 4 25 9 25 4 0 6
-11 3 -25z m2518 -70 c-7 -8 -16 -12 -21 -9 -13 8 -1 24 18 24 13 0 13 -3 3
-15z m50 -10 c0 -8 -7 -15 -15 -15 -16 0 -20 12 -8 23 11 12 23 8 23 -8z
m-2703 -207 c-3 -8 -6 -5 -6 6 -1 11 2 17 5 13 3 -3 4 -12 1 -19z m7173 -30
c32 -52 -9 -138 -66 -138 -36 0 -22 117 19 145 28 19 29 19 47 -7z m-2672 -92
c-10 -7 -18 -19 -18 -27 0 -10 3 -10 12 -1 7 7 16 12 22 12 5 0 -4 -12 -20
-27 -34 -32 -70 -93 -55 -93 6 0 16 10 22 22 19 35 39 53 40 36 3 -27 -3 -44
-22 -64 -23 -24 -24 -34 -4 -34 18 0 20 -46 3 -87 -13 -32 -12 -113 4 -195 10
-57 10 -57 -21 -84 -39 -32 -39 -49 -2 -62 27 -10 29 -14 35 -79 13 -144 4
-346 -16 -370 -6 -7 -23 -13 -39 -13 -27 0 -42 10 -138 95 -44 39 -110 137
-131 194 -23 60 -33 150 -22 181 l9 25 17 -33 c14 -28 20 -31 36 -22 22 12 26
26 9 32 -12 4 -15 76 -7 179 5 58 12 85 32 114 14 21 26 44 26 52 0 39 55 113
122 163 18 14 49 42 68 62 19 21 40 38 45 38 6 -1 2 -7 -7 -14z m-1798 -172
c0 -8 -5 -12 -10 -9 -6 4 -8 11 -5 16 9 14 15 11 15 -7z m1560 -84 c0 -5 -5
-10 -11 -10 -5 0 -7 5 -4 10 3 6 8 10 11 10 2 0 4 -4 4 -10z m2618 -397 c53
-57 78 -112 58 -125 -8 -5 -7 -8 2 -8 6 0 12 -5 12 -11 0 -7 -8 -9 -20 -5 -11
3 -30 9 -42 13 -14 4 -19 2 -15 -4 5 -7 0 -9 -13 -6 -12 3 -19 11 -17 17 4 11
-69 66 -88 66 -15 0 -34 34 -44 79 -10 47 -2 52 69 45 40 -4 51 -11 98 -61z
m-4215 42 c-3 -9 -8 -14 -10 -11 -3 3 -2 9 2 15 9 16 15 13 8 -4z m238 -854
c5 -25 3 -34 -12 -42 -25 -13 -41 -3 -37 24 1 12 -1 28 -5 35 -13 19 1 32 26
23 13 -5 24 -20 28 -40z m4029 -21 c0 -5 -7 -7 -15 -4 -8 4 -12 10 -9 15 6 11
24 2 24 -11z m-4114 -136 c-15 -14 -30 -23 -32 -21 -9 9 10 39 30 47 33 12 34
1 2 -26z m-6 -53 c0 -5 -6 -21 -14 -36 -9 -17 -16 -22 -21 -15 -4 7 -2 23 6
36 12 24 29 32 29 15z m60 -65 c0 -8 -7 -16 -15 -20 -15 -5 -21 14 -8 27 11
12 23 8 23 -7z m-40 -61 c0 -8 -4 -15 -10 -15 -5 0 -10 7 -10 15 0 8 5 15 10
15 6 0 10 -7 10 -15z m1484 -80 c16 -12 17 -22 11 -69 -7 -64 -27 -91 -54 -77
-14 8 -17 20 -13 73 2 35 5 69 7 76 6 16 25 15 49 -3z m76 -30 c4 -52 1 -65
-14 -59 -18 7 -29 74 -14 91 15 18 26 5 28 -32z m-185 -114 c-10 -32 -30 -26
-29 9 2 45 3 46 20 28 10 -10 14 -23 9 -37z m-4355 -25 c-13 -13 -35 7 -25 24
5 8 11 8 21 -1 10 -8 12 -15 4 -23z m3715 -47 c-4 -5 -13 -9 -22 -9 -13 0 -13
3 -3 15 13 15 35 11 25 -6z m1009 -185 c9 -3 16 -15 16 -26 0 -28 -34 -19 -38
10 -4 24 -2 25 22 16z m-1174 -24 c0 -11 -4 -20 -10 -20 -5 0 -10 9 -10 20 0
11 5 20 10 20 6 0 10 -9 10 -20z m1233 -81 c-3 -10 -12 -19 -19 -19 -17 0 -18
14 -3 42 13 25 30 7 22 -23z m-63 1 c9 -16 8 -22 -5 -26 -21 -8 -39 10 -32 30
9 22 24 20 37 -4z m-1187 -5 c7 -16 -8 -29 -23 -20 -10 6 -2 35 10 35 4 0 10
-7 13 -15z m406 -22 c0 -16 3 -43 7 -61 3 -18 2 -38 -4 -45 -5 -6 -13 -29 -16
-51 -7 -34 -10 -38 -32 -33 -13 2 -24 0 -24 -4 0 -5 -12 -9 -27 -9 -19 0 -24
3 -15 8 8 5 10 16 6 27 -6 15 -4 17 16 12 33 -9 49 17 50 80 0 28 5 55 11 58
6 4 8 13 5 20 -2 7 -2 16 1 19 14 13 22 5 22 -21z m281 12 c0 -8 -7 -15 -16
-15 -14 0 -14 3 -4 15 7 8 14 15 16 15 2 0 4 -7 4 -15z m-196 -50 l-7 -29 -9
24 c-11 29 -2 58 13 43 6 -6 7 -22 3 -38z m195 -59 c0 -52 -21 -116 -39 -116
-10 0 -20 26 -20 55 0 31 -20 43 -21 13 -1 -13 -1 -29 0 -35 1 -7 -3 -13 -8
-13 -16 0 -24 20 -13 33 5 7 12 24 16 40 3 15 13 27 21 27 8 0 22 11 32 25 10
13 21 25 24 25 4 0 7 -24 8 -54z m-1429 7 c-1 -24 -2 -26 -11 -10 -5 9 -7 22
-4 27 10 17 15 11 15 -17z m-2270 -29 c1 -57 -6 -79 -26 -79 -28 0 -29 55 -3
89 25 31 28 30 29 -10z m-446 -6 c30 -49 29 -77 -2 -89 -14 -5 -31 -17 -38
-27 -10 -14 -15 -15 -26 -4 -10 10 -10 16 0 33 9 14 11 35 7 59 -5 31 -3 40
12 49 26 15 27 14 47 -21z m536 -18 c0 -5 -4 -10 -10 -10 -5 0 -10 5 -10 10 0
6 5 10 10 10 6 0 10 -4 10 -10z m3210 -10 c0 -5 -5 -10 -11 -10 -5 0 -7 5 -4
10 3 6 8 10 11 10 2 0 4 -4 4 -10z m-3395 -41 c9 -28 -14 -44 -34 -24 -12 11
-12 17 -1 29 17 22 27 20 35 -5z m5345 -78 c0 -19 -29 -51 -47 -51 -17 0 -18
69 -1 105 l12 26 17 -33 c10 -18 18 -39 19 -47z m-1660 24 c0 -19 -4 -35 -10
-35 -12 0 -24 45 -15 59 13 22 25 10 25 -24z m-322 -25 c4 -34 -22 -69 -39
-53 -18 18 -3 85 19 81 10 -2 18 -14 20 -28z m110 -7 c-3 -30 -25 -42 -34 -19
-9 22 2 46 21 46 12 0 15 -8 13 -27z m-32 -112 c-13 -20 -26 -11 -26 16 0 25
1 26 16 11 9 -9 13 -21 10 -27z m-126 0 c0 -10 -7 -24 -15 -31 -13 -10 -15 -9
-15 12 0 14 3 28 7 31 12 13 23 7 23 -12z m220 -66 c0 -14 -4 -25 -10 -25 -11
0 -14 33 -3 43 11 11 13 8 13 -18z m-3720 -14 c0 -13 -26 -32 -33 -24 -14 13
-6 33 13 33 11 0 20 -4 20 -9z m3583 -31 c6 -22 -16 -50 -39 -50 -14 0 -19 27
-8 54 9 23 41 20 47 -4z"/>
<path d="M3211 3644 c0 -11 3 -14 6 -6 3 7 2 16 -1 19 -3 4 -6 -2 -5 -13z"/>
<path d="M2202 8020 c0 -14 2 -19 5 -12 2 6 2 18 0 25 -3 6 -5 1 -5 -13z"/>
<path d="M2180 7940 c0 -11 5 -20 10 -20 6 0 10 9 10 20 0 11 -4 20 -10 20 -5
0 -10 -9 -10 -20z"/>
<path d="M5580 7901 c0 -25 6 -27 13 -6 4 8 2 17 -3 20 -6 4 -10 -3 -10 -14z"/>
<path d="M5601 7874 c0 -11 3 -14 6 -6 3 7 2 16 -1 19 -3 4 -6 -2 -5 -13z"/>
<path d="M5631 7857 c-8 -15 -10 -33 -6 -44 6 -15 9 -12 17 15 12 45 6 60 -11
29z"/>
<path d="M4955 7022 c-3 -4 -32 -8 -63 -9 -52 -2 -85 -6 -152 -16 -14 -3 -40
-5 -58 -6 -22 -1 -31 -5 -26 -12 4 -7 1 -10 -7 -7 -8 3 -19 -2 -26 -11 -11
-14 -12 -14 -13 2 0 9 -7 17 -15 17 -8 0 -14 -6 -12 -12 1 -7 -7 -13 -18 -14
-36 -2 -40 -4 -26 -13 19 -12 3 -34 -21 -28 -22 6 -79 -11 -89 -26 -4 -5 -14
-7 -23 -4 -9 4 -16 2 -16 -3 0 -6 5 -10 11 -10 6 0 9 -9 6 -20 -3 -11 -1 -18
4 -14 5 3 9 12 9 19 0 8 10 19 21 26 15 8 19 8 15 0 -4 -6 -2 -11 4 -11 8 0 8
-6 0 -20 -9 -16 -8 -18 5 -14 8 4 15 10 15 14 0 5 16 14 35 20 19 6 33 16 30
21 -8 12 5 11 42 -2 25 -8 38 -6 72 12 23 12 45 18 49 14 4 -4 1 -10 -5 -12
-7 -3 -13 -9 -13 -14 0 -4 8 -6 18 -2 12 4 11 0 -6 -15 -31 -27 -14 -35 39
-17 25 8 99 16 170 18 69 2 130 6 135 9 5 2 42 5 82 7 70 2 109 -9 192 -57 40
-24 61 -32 80 -32 11 0 20 -4 20 -10 0 -5 6 -10 13 -10 7 0 18 -9 25 -20 7
-12 18 -20 25 -19 30 4 47 -2 47 -16 0 -9 10 -20 23 -26 12 -5 32 -26 45 -45
13 -20 27 -32 34 -28 7 5 4 13 -10 25 -12 9 -22 24 -22 33 0 18 -47 74 -121
143 -5 4 -24 24 -42 43 -42 44 -63 60 -76 60 -6 0 -30 9 -53 19 -60 27 -142
51 -175 51 -16 0 -35 6 -42 13 -11 10 -13 9 -8 -5 4 -12 1 -18 -8 -18 -8 0
-15 4 -15 8 0 5 -13 9 -29 10 -17 0 -38 5 -49 11 -11 6 -23 7 -27 3z m-223
-49 c-22 -9 -1 -23 25 -16 24 5 25 4 12 -9 -10 -12 -19 -13 -36 -5 -27 12 -31
37 -5 36 10 0 12 -3 4 -6z m35 -59 c-3 -3 -12 -4 -19 -1 -8 3 -5 6 6 6 11 1
17 -2 13 -5z m283 -3 c0 -5 -9 -7 -20 -4 -11 3 -20 7 -20 9 0 2 9 4 20 4 11 0
20 -4 20 -9z m-540 -15 c0 -2 -7 -7 -16 -10 -8 -3 -12 -2 -9 4 6 10 25 14 25
6z m765 -6 c3 -5 -1 -10 -10 -10 -9 0 -13 5 -10 10 3 6 8 10 10 10 2 0 7 -4
10 -10z"/>
<path d="M4490 6941 c0 -5 9 -11 19 -14 14 -3 18 -1 14 9 -6 15 -33 19 -33 5z"/>
<path d="M4552 6863 c-6 -2 -10 -9 -7 -13 7 -11 35 -2 35 11 0 10 -8 10 -28 2z"/>
<path d="M4636 6861 c-4 -5 3 -7 14 -4 23 6 26 13 6 13 -8 0 -17 -4 -20 -9z"/>
<path d="M4960 6423 c0 -9 -20 -13 -67 -13 -82 0 -183 -20 -183 -36 0 -16 -26
-25 -47 -17 -16 6 -17 5 -3 -12 8 -10 11 -17 5 -14 -5 3 -25 -10 -44 -28 -31
-30 -32 -33 -13 -33 12 0 22 6 22 13 0 8 4 7 10 -3 5 -8 10 -10 10 -5 0 6 15
16 33 24 17 8 34 17 37 21 3 4 26 10 53 13 l47 7 0 -47 c0 -63 32 -129 68
-138 34 -9 135 -17 186 -16 33 1 37 -1 27 -13 -8 -10 -21 -12 -46 -6 -46 10
-45 -2 1 -19 23 -8 39 -10 46 -3 5 5 24 6 44 2 19 -4 34 -5 34 0 0 11 61 11
98 -1 18 -6 30 -15 27 -20 -4 -5 1 -9 9 -9 9 0 16 6 16 13 0 9 2 9 8 -1 5 -6
19 -11 33 -10 13 1 35 -2 49 -7 l25 -8 -20 23 -20 22 39 -7 c47 -9 43 10 -4
20 -54 12 -33 27 32 24 68 -4 93 14 34 25 -25 5 -57 28 -112 81 -43 41 -86 75
-96 75 -10 0 -21 7 -24 15 -4 8 -14 15 -23 15 -9 0 -40 9 -69 19 -29 11 -55
19 -57 19 -18 0 -72 16 -81 23 -7 6 -21 6 -35 1 -18 -7 -27 -5 -36 7 -8 10
-12 12 -13 4z m1 -134 c6 -12 6 -19 0 -19 -5 0 -12 6 -15 13 -3 6 -3 0 0 -15
6 -29 -1 -34 -24 -20 -7 5 -10 16 -6 25 4 12 1 17 -11 17 -9 0 -14 4 -11 9 10
16 56 9 67 -10z m59 -25 c0 -4 -9 1 -20 11 -11 10 -20 23 -20 28 0 6 9 1 20
-11 11 -12 20 -24 20 -28z m-37 -29 c-3 -9 -8 -14 -10 -11 -3 3 -2 9 2 15 9
16 15 13 8 -4z m180 -73 c-33 -18 -39 -9 -17 21 17 22 20 23 31 8 9 -13 7 -18
-14 -29z"/>
<path d="M5220 6386 c0 -2 8 -10 18 -17 15 -13 16 -12 3 4 -13 16 -21 21 -21
13z"/>
<path d="M4555 6260 c-3 -5 -2 -10 4 -10 5 0 13 5 16 10 3 6 2 10 -4 10 -5 0
-13 -4 -16 -10z"/>
<path d="M4480 6230 c0 -5 4 -10 9 -10 6 0 13 5 16 10 3 6 -1 10 -9 10 -9 0
-16 -4 -16 -10z"/>
<path d="M5270 6079 c0 -5 5 -7 10 -4 6 3 10 8 10 11 0 2 -4 4 -10 4 -5 0 -10
-5 -10 -11z"/>
<path d="M3280 6040 c0 -5 5 -10 10 -10 6 0 10 5 10 10 0 6 -4 10 -10 10 -5 0
-10 -4 -10 -10z"/>
<path d="M3086 5713 c-6 -14 -5 -15 5 -6 7 7 10 15 7 18 -3 3 -9 -2 -12 -12z"/>
<path d="M3867 5713 c-21 -21 9 -83 41 -83 23 0 24 41 1 66 -24 25 -31 28 -42
17z"/>
<path d="M3815 5440 c-76 -11 -131 -29 -145 -45 -14 -17 -9 -51 8 -47 7 1 28
3 47 5 20 1 35 7 35 15 0 6 5 12 10 12 6 0 10 -6 10 -12 0 -10 2 -10 8 -1 5 7
18 10 32 7 58 -12 217 -16 224 -5 11 18 -18 40 -80 61 -61 21 -70 22 -149 10z"/>
<path d="M3030 5229 c0 -5 5 -7 10 -4 6 3 10 8 10 11 0 2 -4 4 -10 4 -5 0 -10
-5 -10 -11z"/>
<path d="M5847 5134 c-4 -4 -7 -14 -7 -23 0 -11 3 -12 11 -4 6 6 10 16 7 23
-2 6 -7 8 -11 4z"/>
<path d="M3577 4683 c-4 -3 -7 -9 -7 -13 0 -13 75 -31 115 -28 l40 3 -49 23
c-48 22 -87 28 -99 15z"/>
<path d="M3814 4665 c-5 -11 -16 -15 -35 -13 -16 1 -30 -1 -31 -6 -2 -5 29 -8
67 -7 75 2 192 -15 345 -49 106 -23 397 -40 370 -21 -8 6 -37 11 -65 11 -43 1
-142 11 -330 36 -22 3 -53 12 -69 20 -16 8 -49 16 -75 19 -111 13 -137 16
-154 21 -10 3 -20 -1 -23 -11z"/>
<path d="M3175 4560 c-3 -6 1 -7 9 -4 18 7 21 14 7 14 -6 0 -13 -4 -16 -10z"/>
<path d="M3130 4386 c0 -2 8 -10 18 -17 15 -13 16 -12 3 4 -13 16 -21 21 -21
13z"/>
<path d="M4030 3329 c0 -5 5 -7 10 -4 6 3 10 8 10 11 0 2 -4 4 -10 4 -5 0 -10
-5 -10 -11z"/>
<path d="M4120 3250 c0 -13 28 -25 38 -16 3 4 0 11 -8 16 -20 13 -30 12 -30 0z"/>
<path d="M1026 3021 c-4 -7 -5 -15 -2 -18 9 -9 19 4 14 18 -4 11 -6 11 -12 0z"/>
<path d="M3927 2794 c-8 -8 1 -24 14 -24 5 0 9 7 9 15 0 15 -12 20 -23 9z"/>
<path d="M3885 2550 c3 -5 8 -10 11 -10 2 0 4 5 4 10 0 6 -5 10 -11 10 -5 0
-7 -4 -4 -10z"/>
<path d="M3912 2090 c0 -14 2 -19 5 -12 2 6 2 18 0 25 -3 6 -5 1 -5 -13z"/>
<path d="M4870 1518 c0 -7 5 -20 10 -28 8 -12 10 -9 10 13 0 15 -4 27 -10 27
-5 0 -10 -6 -10 -12z"/>
<path d="M4268 1508 c-3 -7 -23 -11 -52 -10 -27 1 -55 -3 -62 -9 -18 -15 -18
-53 1 -69 13 -11 11 -15 -10 -32 -14 -11 -25 -29 -25 -40 0 -17 4 -19 26 -14
14 4 32 2 39 -4 9 -8 14 -6 19 6 3 9 4 19 1 24 -3 4 2 13 10 20 11 9 12 17 4
33 -9 16 -8 22 5 29 9 5 16 15 16 22 0 8 14 19 30 26 17 7 30 16 30 21 0 13
-28 11 -32 -3z"/>
<path d="M4973 1453 c9 -9 19 -14 23 -11 10 10 -6 28 -24 28 -15 0 -15 -1 1
-17z"/>
<path d="M4850 1434 c0 -8 5 -12 10 -9 6 4 8 11 5 16 -9 14 -15 11 -15 -7z"/>
<path d="M4940 1446 c0 -2 7 -7 16 -10 8 -3 12 -2 9 4 -6 10 -25 14 -25 6z"/>
<path d="M4391 1414 c0 -11 3 -14 6 -6 3 7 2 16 -1 19 -3 4 -6 -2 -5 -13z"/>
<path d="M4586 1404 c-11 -30 -7 -54 9 -48 9 4 15 19 15 35 0 31 -14 39 -24
13z"/>
<path d="M8198 1399 c-22 -12 -23 -35 -3 -43 17 -6 29 13 23 38 -2 11 -7 12
-20 5z"/>
<path d="M4311 1374 c0 -11 3 -14 6 -6 3 7 2 16 -1 19 -3 4 -6 -2 -5 -13z"/>
<path d="M8018 1374 c-3 -5 -1 -20 5 -34 8 -20 11 -22 14 -8 5 20 -12 55 -19
42z"/>
<path d="M8161 1344 c0 -11 3 -14 6 -6 3 7 2 16 -1 19 -3 4 -6 -2 -5 -13z"/>
<path d="M4340 1335 c0 -8 7 -15 15 -15 8 0 15 7 15 15 0 8 -7 15 -15 15 -8 0
-15 -7 -15 -15z"/>
<path d="M4813 1324 c-7 -18 11 -39 26 -30 17 11 13 46 -4 46 -9 0 -18 -7 -22
-16z"/>
<path d="M4270 1295 c0 -8 5 -15 10 -15 6 0 10 7 10 15 0 8 -4 15 -10 15 -5 0
-10 -7 -10 -15z"/>
<path d="M4910 1280 c-17 -32 5 -53 26 -25 8 10 13 24 11 29 -6 19 -26 17 -37
-4z"/>
<path d="M4242 1262 c-25 -4 -55 -53 -46 -76 3 -9 8 -16 11 -16 9 0 53 53 59
72 7 23 5 25 -24 20z"/>
<path d="M4323 1248 c2 -7 12 -13 22 -13 10 0 20 6 23 13 2 7 -6 12 -23 12
-17 0 -25 -5 -22 -12z"/>
<path d="M7795 1250 c-8 -12 20 -24 35 -15 5 3 10 10 10 16 0 12 -37 12 -45
-1z"/>
<path d="M4515 1230 c-3 -5 -1 -10 4 -10 6 0 11 5 11 10 0 6 -2 10 -4 10 -3 0
-8 -4 -11 -10z"/>
<path d="M4896 1184 c-8 -21 -1 -28 19 -20 9 3 15 11 13 18 -7 19 -25 20 -32
2z"/>
<path d="M4284 1165 c-8 -21 -3 -25 24 -18 13 3 21 11 19 17 -6 18 -37 19 -43
1z"/>
<path d="M7776 1156 c-20 -31 -20 -36 -1 -36 19 0 40 39 27 52 -6 6 -15 0 -26
-16z"/>
<path d="M7318 1154 c-5 -4 -8 -16 -8 -28 0 -14 3 -17 11 -9 6 6 9 19 7 28 -1
9 -6 13 -10 9z"/>
<path d="M7462 1129 c2 -6 8 -10 13 -10 5 0 11 4 13 10 2 6 -4 11 -13 11 -9 0
-15 -5 -13 -11z"/>
<path d="M7957 1063 c-12 -11 -8 -23 8 -23 8 0 15 7 15 15 0 16 -12 20 -23 8z"/>
<path d="M8883 1063 c-20 -7 -15 -23 7 -23 11 0 20 4 20 9 0 13 -12 19 -27 14z"/>
<path d="M4260 1045 c0 -8 9 -15 20 -15 11 0 20 7 20 15 0 8 -9 15 -20 15 -11
0 -20 -7 -20 -15z"/>
<path d="M8295 1050 c-3 -5 -1 -19 6 -31 10 -20 12 -21 21 -5 16 29 -10 64
-27 36z"/>
<path d="M8281 924 c0 -11 3 -14 6 -6 3 7 2 16 -1 19 -3 4 -6 -2 -5 -13z"/>
<path d="M7076 915 c-3 -8 -1 -15 4 -15 6 0 10 7 10 15 0 8 -2 15 -4 15 -2 0
-6 -7 -10 -15z"/>
<path d="M945 860 c-3 -5 1 -10 9 -10 9 0 16 5 16 10 0 6 -4 10 -9 10 -6 0
-13 -4 -16 -10z"/>
<path d="M7160 850 c0 -5 5 -10 10 -10 6 0 10 5 10 10 0 6 -4 10 -10 10 -5 0
-10 -4 -10 -10z"/>
<path d="M8277 854 c-4 -4 -7 -17 -7 -28 0 -19 1 -19 17 -3 12 11 14 20 7 27
-6 6 -13 7 -17 4z"/>
<path d="M8421 844 c0 -11 3 -14 6 -6 3 7 2 16 -1 19 -3 4 -6 -2 -5 -13z"/>
<path d="M7430 830 c0 -13 5 -18 15 -14 8 4 15 10 15 14 0 4 -7 10 -15 14 -10
4 -15 -1 -15 -14z"/>
<path d="M9129 824 c-12 -14 -11 -16 5 -13 11 2 21 10 24 17 5 17 -13 15 -29
-4z"/>
<path d="M4125 810 c-3 -5 -1 -10 4 -10 6 0 11 5 11 10 0 6 -2 10 -4 10 -3 0
-8 -4 -11 -10z"/>
<path d="M7067 813 c-4 -3 -7 -15 -7 -25 0 -26 24 -17 28 10 3 21 -8 29 -21
15z"/>
<path d="M7585 787 c-4 -10 -5 -21 -1 -24 10 -10 18 4 13 24 -4 17 -4 17 -12
0z"/>
<path d="M4406 764 c-22 -22 -20 -44 4 -44 16 0 20 7 20 30 0 34 -3 36 -24 14z"/>
<path d="M9398 773 c6 -2 18 -2 25 0 6 3 1 5 -13 5 -14 0 -19 -2 -12 -5z"/>
<path d="M9065 760 c-24 -9 -50 -38 -43 -46 12 -12 56 9 62 29 6 26 6 27 -19
17z"/>
<path d="M7420 705 c0 -14 5 -25 10 -25 6 0 10 11 10 25 0 14 -4 25 -10 25 -5
0 -10 -11 -10 -25z"/>
<path d="M8995 671 c-7 -22 4 -53 16 -45 12 7 12 64 0 64 -5 0 -12 -8 -16 -19z"/>
<path d="M7586 664 c-20 -19 -20 -28 0 -45 13 -10 17 -10 25 2 22 35 2 71 -25
43z"/>
<path d="M9097 654 c-16 -16 -6 -35 16 -32 12 2 22 10 22 18 0 16 -26 25 -38
14z"/>
<path d="M245 640 c-3 -5 -2 -10 4 -10 5 0 13 5 16 10 3 6 2 10 -4 10 -5 0
-13 -4 -16 -10z"/>
<path d="M8557 633 c-12 -11 -8 -23 8 -23 8 0 15 7 15 15 0 16 -12 20 -23 8z"/>
<path d="M7920 610 c0 -5 7 -10 15 -10 8 0 15 5 15 10 0 6 -7 10 -15 10 -8 0
-15 -4 -15 -10z"/>
<path d="M7756 585 c-9 -26 -7 -32 5 -12 6 10 9 21 6 23 -2 3 -7 -2 -11 -11z"/>
<path d="M294 567 c-7 -18 13 -60 25 -53 4 3 21 -8 36 -24 37 -39 94 -56 115
-34 13 13 13 16 0 24 -8 5 -22 10 -31 10 -17 0 -59 35 -59 49 0 5 -15 15 -32
22 -18 7 -36 14 -40 17 -5 2 -11 -3 -14 -11z"/>
<path d="M5606 563 c-2 -10 -8 -33 -11 -52 -7 -33 -7 -34 12 -15 24 23 34 49
27 69 -8 20 -22 19 -28 -2z"/>
<path d="M9195 570 c-3 -5 1 -10 9 -10 9 0 16 5 16 10 0 6 -4 10 -9 10 -6 0
-13 -4 -16 -10z"/>
<path d="M520 550 c0 -16 5 -21 23 -18 12 2 22 10 22 18 0 8 -10 16 -22 18
-18 3 -23 -2 -23 -18z"/>
<path d="M4190 536 c0 -9 5 -16 10 -16 6 0 10 4 10 9 0 6 -4 13 -10 16 -5 3
-10 -1 -10 -9z"/>
<path d="M7562 498 c2 -13 8 -23 13 -23 6 0 11 10 13 23 2 15 -2 22 -13 22
-11 0 -15 -7 -13 -22z"/>
<path d="M8590 510 c0 -5 5 -10 10 -10 6 0 10 5 10 10 0 6 -4 10 -10 10 -5 0
-10 -4 -10 -10z"/>
<path d="M570 471 c-16 -30 -12 -41 13 -41 30 0 55 45 31 54 -25 10 -33 7 -44
-13z"/>
<path d="M8938 479 c-22 -12 -24 -39 -3 -39 16 0 29 22 23 39 -2 6 -9 6 -20 0z"/>
<path d="M5386 471 c-11 -18 6 -72 22 -69 29 6 38 35 18 57 -21 23 -32 26 -40
12z"/>
<path d="M7011 461 c-12 -21 -5 -32 15 -24 16 6 19 43 4 43 -5 0 -14 -8 -19
-19z"/>
<path d="M7747 473 c-10 -10 -8 -43 2 -43 9 0 21 24 21 41 0 11 -14 12 -23 2z"/>
<path d="M9100 465 c-24 -14 -24 -14 -4 -15 12 0 24 7 28 15 6 18 7 18 -24 0z"/>
<path d="M5785 427 c-4 -10 -5 -21 -1 -24 10 -10 18 4 13 24 -4 17 -4 17 -12
0z"/>
<path d="M4170 420 c0 -5 5 -10 10 -10 6 0 10 5 10 10 0 6 -4 10 -10 10 -5 0
-10 -4 -10 -10z"/>
<path d="M7561 411 c-8 -14 -7 -22 4 -31 13 -11 15 -8 15 19 0 36 -5 39 -19
12z"/>
<path d="M8072 406 c1 -10 8 -17 13 -17 15 1 12 24 -3 29 -9 3 -13 -2 -10 -12z"/>
<path d="M9030 410 c-8 -5 -29 -10 -46 -10 -16 0 -39 -7 -50 -15 -18 -14 -18
-16 -1 -26 26 -15 21 -27 -18 -43 -47 -20 -64 -56 -41 -91 10 -15 15 -29 12
-32 -12 -12 17 -33 45 -33 16 0 29 -4 29 -10 0 -5 -4 -10 -10 -10 -12 0 -13
-37 -1 -44 4 -3 16 3 25 12 14 16 14 21 1 38 -21 28 -18 41 10 48 14 4 25 13
25 22 0 9 9 27 20 41 22 28 27 63 9 63 -6 0 -8 11 -5 28 10 46 15 72 13 72 -1
0 -9 -5 -17 -10z m-45 -90 c3 -5 2 -10 -4 -10 -5 0 -13 5 -16 10 -3 6 -2 10 4
10 5 0 13 -4 16 -10z"/>
<path d="M5865 396 c-16 -11 -20 -28 -22 -94 -1 -56 2 -84 11 -91 24 -20 37
13 39 98 3 94 -1 107 -28 87z"/>
<path d="M557 393 c-4 -3 -7 -11 -7 -17 0 -6 5 -5 12 2 6 6 9 14 7 17 -3 3 -9
2 -12 -2z"/>
<path d="M7090 380 c0 -11 5 -20 10 -20 6 0 10 9 10 20 0 11 -4 20 -10 20 -5
0 -10 -9 -10 -20z"/>
<path d="M7751 326 c-7 -8 -8 -17 -3 -20 6 -3 13 1 16 10 9 23 2 28 -13 10z"/>
<path d="M5792 310 c0 -14 2 -19 5 -12 2 6 2 18 0 25 -3 6 -5 1 -5 -13z"/>
<path d="M7555 290 c-7 -12 2 -30 16 -30 5 0 9 9 9 20 0 21 -15 27 -25 10z"/>
<path d="M7917 274 c-3 -3 -3 -13 0 -21 5 -12 7 -12 14 -1 15 23 4 40 -14 22z"/>
<path d="M3860 256 c0 -9 5 -16 10 -16 6 0 10 4 10 9 0 6 -4 13 -10 16 -5 3
-10 -1 -10 -9z"/>
<path d="M4480 245 c0 -8 7 -15 15 -15 9 0 12 6 9 15 -4 8 -10 15 -15 15 -5 0
-9 -7 -9 -15z"/>
<path d="M5340 220 c0 -11 4 -20 9 -20 5 0 11 9 14 20 3 13 0 20 -9 20 -8 0
-14 -9 -14 -20z"/>
<path d="M7178 185 c-10 -21 -9 -29 5 -43 16 -15 17 -15 17 1 0 9 5 17 11 17
14 0 7 42 -8 48 -7 2 -18 -8 -25 -23z"/>
<path d="M5935 190 c-3 -5 -1 -10 4 -10 6 0 11 5 11 10 0 6 -2 10 -4 10 -3 0
-8 -4 -11 -10z"/>
<path d="M6975 180 c-8 -13 -1 -24 14 -19 6 3 7 10 2 18 -6 10 -10 10 -16 1z"/>
<path d="M4446 164 c-7 -19 2 -37 15 -29 12 8 12 45 0 45 -5 0 -12 -7 -15 -16z"/>
<path d="M5840 166 c0 -8 -3 -21 -6 -30 -4 -11 0 -16 14 -16 26 0 35 14 27 40
-7 23 -35 27 -35 6z"/>
<path d="M5653 163 c-7 -3 -13 -12 -13 -21 0 -15 2 -15 17 1 18 18 16 27 -4
20z"/>
<path d="M7538 145 c-3 -14 -1 -28 3 -31 15 -9 29 6 29 32 0 32 -26 31 -32 -1z"/>
<path d="M5145 147 c-4 -10 -5 -21 -1 -24 10 -10 18 4 13 24 -4 17 -4 17 -12
0z"/>
<path d="M7900 139 c0 -11 6 -27 14 -35 12 -12 16 -9 25 18 14 40 15 38 -14
38 -19 0 -25 -5 -25 -21z"/>
<path d="M8862 116 c6 -30 6 -51 -1 -65 -20 -37 -14 -51 24 -51 30 0 35 3 35
23 0 13 -9 32 -19 41 -18 17 -18 19 -3 46 19 32 17 36 -19 45 l-27 7 10 -46z"/>
<path d="M9374 145 c-7 -17 2 -45 13 -45 21 1 35 19 28 39 -7 24 -33 28 -41 6z"/>
<path d="M8580 101 c0 -29 18 -36 40 -16 24 21 17 35 -16 35 -17 0 -24 -5 -24
-19z"/>
<path d="M5216 91 c-16 -18 -17 -25 -7 -47 11 -26 12 -26 31 -9 23 21 25 35 7
59 -12 16 -14 16 -31 -3z"/>
<path d="M6795 90 c-3 -5 -1 -10 4 -10 6 0 11 5 11 10 0 6 -2 10 -4 10 -3 0
-8 -4 -11 -10z"/>
<path d="M6973 68 c-19 -22 -20 -68 -3 -68 15 0 31 49 22 66 -7 13 -10 13 -19
2z"/>
<path d="M8340 63 c0 -13 5 -23 10 -23 13 0 13 11 0 30 -8 12 -10 11 -10 -7z"/>
<path d="M1133 43 c-18 -7 -16 -23 2 -23 8 0 15 7 15 15 0 8 -1 15 -2 14 -2 0
-9 -3 -15 -6z"/>
<path d="M5390 26 c0 -19 5 -24 25 -22 27 1 32 15 13 34 -20 20 -38 14 -38
-12z"/>
<path d="M5590 20 c0 -13 7 -20 20 -20 11 0 20 4 20 10 0 5 -9 14 -20 20 -17
9 -20 8 -20 -10z"/>
<path d="M5075 10 c-3 -5 1 -10 9 -10 9 0 16 5 16 10 0 6 -4 10 -9 10 -6 0
-13 -4 -16 -10z"/>
</g>
</svg>
